<?xml version="1.0" encoding="UTF-8" standalone="no" ?>
<!DOCTYPE svg PUBLIC "-//W3C//DTD SVG 1.1//EN" "http://www.w3.org/Graphics/SVG/1.1/DTD/svg11.dtd">
<svg xmlns="http://www.w3.org/2000/svg" xmlns:xlink="http://www.w3.org/1999/xlink" version="1.1" width="1080" height="1080" viewBox="0 0 1080 1080" xml:space="preserve">
<desc>Created with Fabric.js 5.2.4</desc>
<defs>
</defs>
<rect x="0" y="0" width="100%" height="100%" fill="transparent"></rect>
<g transform="matrix(1 0 0 1 540 540)" id="9f094c81-8351-4eaa-aa5d-c29309869f91"  >
<rect style="stroke: none; stroke-width: 1; stroke-dasharray: none; stroke-linecap: butt; stroke-dashoffset: 0; stroke-linejoin: miter; stroke-miterlimit: 4; fill: rgb(255,255,255); fill-rule: nonzero; opacity: 1; visibility: hidden;" vector-effect="non-scaling-stroke"  x="-540" y="-540" rx="0" ry="0" width="1080" height="1080" />
</g>
<g transform="matrix(1 0 0 1 540 540)" id="ffb4cb6b-f61d-43da-96c0-39cf7c9863b2"  >
</g>
<g transform="matrix(60 0 0 60 540 540)"  >
<path style="stroke: none; stroke-width: 1; stroke-dasharray: none; stroke-linecap: butt; stroke-dashoffset: 0; stroke-linejoin: miter; stroke-miterlimit: 4; fill: rgb(0,49,69); fill-rule: nonzero; opacity: 1;"  transform=" translate(-9, -9.56)" d="M 16.875 16.875 L 12.375 16.875 L 12.375 2.25 L 16.875 2.25 L 16.875 16.875 Z M 13.5 15.75 L 15.75 15.75 L 15.75 3.375 L 13.5 3.375 L 13.5 15.75 Z M 11.25 16.875 L 6.75 16.875 L 6.75 6.75 L 11.25 6.75 L 11.25 16.875 Z M 7.875 15.75 L 10.125 15.75 L 10.125 7.875 L 7.875 7.875 L 7.875 15.75 Z M 5.625 16.875 L 1.125 16.875 L 1.125 10.125 L 5.625 10.125 L 5.625 16.875 Z" stroke-linecap="round" />
</g>
<g transform="matrix(3.63 0 0 8.75 537.92 676.63)" id="5b80ece7-9b94-43f4-8b68-c5a95ca2d41e"  >
<rect style="stroke: rgb(0,0,0); stroke-width: 0; stroke-dasharray: none; stroke-linecap: butt; stroke-dashoffset: 0; stroke-linejoin: miter; stroke-miterlimit: 4; fill: rgb(0,49,69); fill-rule: nonzero; opacity: 1;" vector-effect="non-scaling-stroke"  x="-33.085" y="-33.085" rx="0" ry="0" width="66.17" height="66.17" />
</g>
<g transform="matrix(0 0 0 0 0 0)"  >
<g style=""   >
</g>
</g>
<g transform="matrix(0 0 0 0 0 0)"  >
<g style=""   >
</g>
</g>
<g transform="matrix(3.92 0 0 12.88 875.04 539.59)" id="5b80ece7-9b94-43f4-8b68-c5a95ca2d41e"  >
<rect style="stroke: rgb(0,0,0); stroke-width: 0; stroke-dasharray: none; stroke-linecap: butt; stroke-dashoffset: 0; stroke-linejoin: miter; stroke-miterlimit: 4; fill: rgb(0,49,69); fill-rule: nonzero; opacity: 1;" vector-effect="non-scaling-stroke"  x="-33.085" y="-33.085" rx="0" ry="0" width="66.17" height="66.17" />
</g>
</svg>